<svg xmlns="http://www.w3.org/2000/svg" enable-background="new 0 0 68 68" viewBox="0 0 68 68" id="travel-bag"><path fill="#F37D7F" d="M49,12.60876H19c-1.65997,0-3,1.34003-3,3v42.39001c0,1.65997,1.34003,3,3,3h30c1.66003,0,3-1.34003,3-3
				V15.60876C52,13.94879,50.66003,12.60876,49,12.60876z"></path><path fill="#EF3F3E" d="M51.99829,15.60876v42.39001c0,1.65997-1.33997,3-3,3h-30c-1.00995,0-1.90997-0.5-2.45996-1.27002
				c33.53998-6.01001,31.63-37.31,30.15997-47.12h2.29999C50.65833,12.60876,51.99829,13.94879,51.99829,15.60876z"></path><rect width="4.267" height="10.61" x="26" y="1.999" fill="#DFE1E6"></rect><rect width="4.267" height="10.61" x="37.733" y="1.999" fill="#DFE1E6"></rect><path fill="#DFE1E6" d="M25.04906 60.99878v4c0 .55228-.44772 1-1 1h-4c-.55228 0-1-.44772-1-1v-4H25.04906zM48.95438 60.99878v4c0 .55228-.44771 1-1 1h-4c-.55228 0-1-.44772-1-1v-4H48.95438z"></path><path fill="#FFF" d="M23.0166,27.26634c-0.28955-0.2959-0.28467-0.771,0.01172-1.06055l2.69629-2.6377
				c0.29688-0.28906,0.77148-0.28369,1.06055,0.01172c0.28955,0.2959,0.28467,0.771-0.01172,1.06055l-2.69629,2.6377
				C23.78175,27.56654,23.30719,27.56369,23.0166,27.26634z"></path><g><path fill="#FFF" d="M28.92725,21.48411c-0.28955-0.2959-0.28467-0.771,0.01172-1.06055l2.26709-2.21777
				c0.29688-0.28906,0.77197-0.28418,1.06055,0.01172c0.28955,0.29639,0.28418,0.771-0.01172,1.06055l-2.26709,2.21777
				C29.69239,21.78432,29.21784,21.78146,28.92725,21.48411z"></path></g><path fill="#010101" d="M49.03473,11.61216C49.02289,11.61204,49.0119,11.60862,49,11.60862h-6V3.00169h1c0.55225,0,1-0.44775,1-1
		s-0.44775-1-1-1c-2.35601-0.0011-20.127,0.00019-20,0c-0.55225,0-1,0.44775-1,1s0.44775,1,1,1h1v8.60693h-6
		c-2.20557,0-4,1.79443-4,4c0,10.148,0,30.99446,0,42.39014c0,1.7406,1.12439,3.20972,2.67969,3.7583
		c0.01654,0.00696,0.03339,0.00958,0.05023,0.01569c0.10529,0.03558,0.2099,0.07239,0.31891,0.09918v3.12683
		c0,1.10303,0.89697,2,2,2h4c1.10303,0,2-0.89697,2-2v-3h15.90576v3c0,1.10303,0.89697,2,2,2h4c1.10303,0,2-0.89697,2-2v-3.12793
		C51.6983,61.43998,53,59.8737,53,57.99876V15.60862C53,13.33059,51.07735,11.5822,49.03473,11.61216z M20.32227,59.99876
		L51,29.32151v14.60156L34.92432,59.99876C26.81968,59.99876,28.55123,59.99876,20.32227,59.99876z M17,28.45256l14.90125-14.84393
		c8.18436,0,6.40597,0,14.71631,0L17,42.93956V28.45256z M31.2666,11.60862V3.00169h5.4668v8.60693H31.2666z M41,11.60862h-2.2666
		V3.00169H41V11.60862z M27,3.00169h2.2666v8.60693H27V3.00169z M19,13.60862c2.62972,0,6.5029,0,10.06763,0L17,25.62986V15.60862
		C17,14.5056,17.89697,13.60862,19,13.60862z M17,45.75407l32.41467-32.10101C50.31909,13.84459,51,14.64787,51,15.60862v10.88477
		L17.85706,59.63585C17.34027,59.27391,17,58.67631,17,57.99876V45.75407z M24.05029,64.99876h-4.00146v-3h4.00049
		L24.05029,64.99876z M43.95459,64.99876v-3h4.00049l0.00098,3H43.95459z M49,59.99876h-0.04541c-2.74692,0-8.32212,0-11.20215,0
		L51,46.7512v11.24756C51,59.10179,50.10303,59.99876,49,59.99876z"></path></svg>